<?xml version="1.0" encoding="UTF-8"?>
<svg width="512" height="512" viewBox="0 0 24 24" xmlns="http://www.w3.org/2000/svg">
  <path fill="#8B5CF6" d="M8 5h8v2h-8z" transform="rotate(45 12 6)"/>
  <path fill="#C4B5FD" d="M20.71 7.29a.996.996 0 0 0-1.41 0l-2.59 2.59l-6.29-6.3L8.71.88A.996.996 0 1 0 7.3 2.29l1.42 1.42l-5.01 5.01a.996.996 0 0 0 0 1.41c.39.39 1.02.39 1.41 0l5.01-5.01l6.29 6.29l-8.29 8.3a.996.996 0 1 0 1.41 1.41l8.29-8.29l2.59 2.59c.39.39 1.02.39 1.41 0c.39-.39.39-1.02 0-1.41l-2.59-2.59l1.42-1.42c.38-.38.38-1.02-.01-1.42z"/>
</svg>